<?xml version="1.0" standalone="no"?><!DOCTYPE svg PUBLIC "-//W3C//DTD SVG 1.1//EN" "http://www.w3.org/Graphics/SVG/1.1/DTD/svg11.dtd"><svg t="1638368109364" class="icon" viewBox="0 0 1160 1024" version="1.1" xmlns="http://www.w3.org/2000/svg" p-id="1446" data-spm-anchor-id="a313x.7781069.0.i8" xmlns:xlink="http://www.w3.org/1999/xlink" width="226.5625" height="200"><defs><style type="text/css"></style></defs><path d="M578.858065 508.874033L666.803341 179.716987 1067.303535 580.23809H1160.476181L580.23809 0 0 580.23809h93.172646l398.325608-398.346517 87.359811 326.98246zM242.278153 681.586343H94.699038l157.260205 163.09395-15.514835-65.843955a168.823147 168.823147 0 0 1 5.833745-97.249995z" fill="#1296db" p-id="1447"></path><path d="M703.06038 313.955853l-19.362179 72.221347-0.334552 1.254569-51.91824 193.789067-13.444796 50.182754-13.444797 50.182753-23.167704 86.481613-23.167705-86.481613-13.444796-50.182753-13.444796-50.182754-51.93915-193.789067-0.334552-1.254569-19.362179-72.221347L192.429951 581.220836h107.725645c56.330141-77.009618 125.456884-140.093521 125.456884-140.093521l37.427971 140.093521 13.402977 50.182754 13.423887 50.182753 90.370775 338.148123 0.355462 1.338207 0.79456 2.927327 0.773651-2.927327 90.726237-339.48633 13.423886-50.182753 13.465706-50.182754 37.42797-140.093521s69.126743 63.021175 125.456885 140.093521h107.725644zM926.310906 778.794519l-15.514835 65.885774 157.260205-163.09395h-147.579115a168.823147 168.823147 0 0 1 5.833745 97.208176z" fill="#1296db" p-id="1448"></path></svg>