<svg xmlns="http://www.w3.org/2000/svg" xmlns:xlink="http://www.w3.org/1999/xlink" width="151.7100009918213" height="199.98423767089844" viewBox="0 0 151.7100009918213 199.98423767089844" fill="none"><path id="路径 1" fill-rule="evenodd" style="fill:#000000" opacity="1" d="M81.56,197.13c-0.4,0.4 -0.68,0.69 -0.83,0.84c-2.74,2.73 -7.19,2.68 -9.86,-0.12c-0.15,-0.16 -0.43,-0.45 -0.83,-0.88c-0.64,-0.69 -1.4,-1.5 -2.24,-2.42c-2.4,-2.63 -5.06,-5.62 -7.94,-8.94c-8.19,-9.49 -16.39,-19.68 -24.06,-30.21c-8.86,-12.17 -16.43,-24.02 -22.32,-35.28c-8.7,-16.62 -13.48,-31.46 -13.48,-44.26c0,-41.9 33.96,-75.86 75.86,-75.86c41.89,0 75.85,33.96 75.85,75.86c0,11.55 -3.43,24.33 -9.78,38.19c-6.24,13.63 -15.16,27.99 -26.05,42.69c-7.69,10.36 -15.9,20.29 -24.12,29.44c-2.87,3.21 -5.55,6.1 -7.95,8.62c-0.85,0.88 -1.6,1.66 -2.25,2.33zM70.99,188.21c0.11,-0.12 0.35,-0.36 0.71,-0.73c0.61,-0.63 1.33,-1.36 2.13,-2.2c2.31,-2.42 4.89,-5.21 7.67,-8.3c7.94,-8.86 15.89,-18.47 23.3,-28.45c10.37,-13.99 18.8,-27.57 24.59,-40.23c5.59,-12.19 8.53,-23.14 8.53,-32.44c0,-34.28 -27.79,-62.07 -62.06,-62.07c-34.28,0 -62.07,27.79 -62.07,62.07c0,10.16 4.15,23.04 11.91,37.87c5.55,10.6 12.76,21.89 21.25,33.55c7.42,10.19 15.38,20.1 23.35,29.3c2.78,3.23 5.37,6.13 7.68,8.66c0.81,0.89 1.52,1.66 2.14,2.31c0.36,0.39 0.61,0.65 0.72,0.78zM106.89,75.86c0,17.13 -13.9,31.03 -31.03,31.03c-17.14,0 -31.04,-13.9 -31.04,-31.03c0,-17.14 13.9,-31.04 31.04,-31.04c17.13,0 31.03,13.9 31.03,31.04zM75.86,93.1c9.52,0 17.24,-7.72 17.24,-17.24c0,-9.53 -7.72,-17.24 -17.24,-17.24c-9.53,0 -17.24,7.71 -17.24,17.24c0,9.52 7.71,17.24 17.24,17.24z"></path></svg>